<?xml version="1.0" encoding="utf-8"?>
<!-- Generator: Adobe Illustrator 18.0.0, SVG Export Plug-In . SVG Version: 6.00 Build 0)  -->
<!DOCTYPE svg PUBLIC "-//W3C//DTD SVG 1.1//EN" "http://www.w3.org/Graphics/SVG/1.1/DTD/svg11.dtd">
<svg version="1.1" id="Arrow_1_" xmlns="http://www.w3.org/2000/svg" xmlns:xlink="http://www.w3.org/1999/xlink" x="0px" y="0px"
	 width="500px" height="140.7px" viewBox="0 0 500 140.7" enable-background="new 0 0 500 140.7" xml:space="preserve">
  <metadata>
    <?xpacket begin="﻿" id="W5M0MpCehiHzreSzNTczkc9d"?>
    <x:xmpmeta xmlns:x="adobe:ns:meta/" x:xmptk="Adobe XMP Core 5.6-c011 79.156380, 2014/06/19-23:40:37        ">
     <rdf:RDF xmlns:rdf="http://www.w3.org/1999/02/22-rdf-syntax-ns#">
      <rdf:Description rdf:about=""
        xmlns:xmpMM="http://ns.adobe.com/xap/1.0/mm/"
        xmlns:stEvt="http://ns.adobe.com/xap/1.0/sType/ResourceEvent#"
        xmlns:xmp="http://ns.adobe.com/xap/1.0/"
        xmlns:xmpRights="http://ns.adobe.com/xap/1.0/rights/"
        xmlns:dc="http://purl.org/dc/elements/1.1/"
       xmpMM:DocumentID="xmp.did:f023aa77c5cd03cb29cbb16bff93461b"
       xmpMM:OriginalDocumentID="xmp.did:f023aa77c5cd03cb29cbb16bff93461b"
       xmpMM:InstanceID="xmp.iid:f023aa77c5cd03cb29cbb16bff93461b"
       xmp:ModifyDate="2015-04-22T16:05:08+02:00"
       xmp:MetadataDate="2015-04-22T16:05:08+02:00"
       xmpRights:Marked="True"
       xmpRights:WebStatement="http://www.adobe.com/legal/general-terms.html">
       <xmpMM:History>
        <rdf:Seq>
         <rdf:li
          stEvt:action="saved"
          stEvt:instanceID="xmp.iid:f023aa77c5cd03cb29cbb16bff93461b"
          stEvt:when="2015-04-22T16:05:08+02:00"/>
        </rdf:Seq>
       </xmpMM:History>
       <xmpRights:UsageTerms>
        <rdf:Alt>
         <rdf:li xml:lang="x-default">This work is licensed under the Adobe General Terms of Use http://www.adobe.com/legal/general-terms.html.</rdf:li>
        </rdf:Alt>
       </xmpRights:UsageTerms>
       <dc:publisher>
        <rdf:Bag>
         <rdf:li>Adobe Systems Incorporated</rdf:li>
        </rdf:Bag>
       </dc:publisher>
      </rdf:Description>
     </rdf:RDF>
    </x:xmpmeta>
    <?xpacket end="r"?>
  </metadata>
<g>
	<g id="Base_6_">
		<path fill="#1A4E95" d="M9.4,0C4.2,0,0,4.2,0,9.4v122c0,5.2,4.2,9.4,9.4,9.4h131.4V0H9.4z"/>
	</g>
	<g id="Base_2_7_">
		<path fill="#2E71CD" d="M490.7,0H138.2v140.7h352.5c5.1,0,9.3-4.2,9.3-9.4V9.4C500,4.2,495.8,0,490.7,0z"/>
	</g>
	<g id="Shape_9_copy_8">
		<path fill="#1A4E95" d="M421.5,48.7l-14.6,13.5l-3.2-13.5L393,59.9L379.8,51l-8.5,8.8l-6-7.8h-7.9l-4-2l-9.9,7.9l-21.1-9.2
			l-6.5,6.6l-20.6-6.6l-9.5,9l-14.3-7.1l-15.2,13l-9.4-14.9l-10.3,6.7l-12-3.4l-7.9-3.3c0,0-45.4,50.6-78.3,86.5v5.6H391l38.2-43.1
			l-14.4-21.8L421.5,48.7z"/>
	</g>
	<g id="facebook">
		<path fill="#CDE7FF" d="M216.5,97.6h7.7V77.4h10v-7h-10V55.7h12.7v-7h-20.4V97.6z M246.7,48.7l-7.9,48.9h7.1l1.3-8.9h9.5l1.3,8.9
			h7.8L258,48.7H246.7z M248.3,82.1l3.7-24.7l3.7,24.7H248.3z M278.9,48.1c-7.6,0-11.5,4.5-11.5,12.3v25.4c0,7.8,3.9,12.3,11.5,12.3
			c7.6,0,11.5-4.5,11.5-12.3v-6.5h-7.3v7c0,3.5-1.5,4.8-4,4.8c-2.5,0-4-1.3-4-4.8V59.9c0-3.5,1.5-4.8,4-4.8c2.5,0,4,1.3,4,4.8v5.2
			h7.3v-4.8C290.4,52.6,286.5,48.1,278.9,48.1z M295.2,97.6h21v-7h-13.3V76.3h10.6v-7h-10.6V55.7h13.3v-7h-21V97.6z M340.4,71.5
			c3.4-1.6,5-4.8,5-9.9v-1.7c0-7.5-3.4-11.2-11.4-11.2h-11.6v48.9h12.1c7.7,0,11.7-4.1,11.7-11.6v-4
			C346.2,76.8,344.5,73.1,340.4,71.5z M330,55.7h3.7c2.7,0,3.9,1.5,3.9,5v2.7c0,3.9-1.8,5.2-4.6,5.2h-3V55.7L330,55.7z M338.4,85.8
			c0,3.6-1.4,4.8-4,4.8H330v-15h3.4c3.5,0,5,1.4,5,5.9V85.8z M360.5,48.1c-7.6,0-11.7,4.5-11.7,12.3v25.4c0,7.8,4.1,12.3,11.7,12.3
			c7.6,0,11.7-4.5,11.7-12.3V60.4C372.2,52.6,368.1,48.1,360.5,48.1z M364.5,86.3c0,3.5-1.5,4.8-4,4.8c-2.5,0-4-1.3-4-4.8V59.9
			c0-3.5,1.5-4.8,4-4.8c2.5,0,4,1.3,4,4.8V86.3z M387.7,48.1c-7.6,0-11.7,4.5-11.7,12.3v25.4c0,7.8,4.1,12.3,11.7,12.3
			s11.7-4.5,11.7-12.3V60.4C399.4,52.6,395.2,48.1,387.7,48.1z M391.7,86.3c0,3.5-1.5,4.8-4,4.8c-2.5,0-4-1.3-4-4.8V59.9
			c0-3.5,1.5-4.8,4-4.8c2.5,0,4,1.3,4,4.8V86.3z M429.2,48.7h-7.7L411.4,70V48.7h-7.7v48.9h7.7v-15l2.4-4.5l7.5,19.5h7.9l-10.7-27.1
			L429.2,48.7z"/>
	</g>
	<g id="Shape_9_7_">
		<path fill="#153867" d="M66,65.1l2-24.3c0,0-39.8,35.4-68,61.6v28.9c0,5.2,4.2,9.4,9.4,9.4h39c13.7-13.5,26-25.4,26-25.4
			l-7.3-21.9L66,65.1z"/>
	</g>
	<g id="Shape_10">
		<polygon fill="#153867" points="86.6,47.6 74.2,46.8 64.8,56.3 73.8,65.5 89.3,52.4 		"/>
	</g>
	<g id="Shape_10_copy">
		<polygon fill="#153867" points="86.3,74.4 73.9,73.6 64.4,83.1 73.4,92.2 89.3,79.4 		"/>
	</g>
	<g id="Shape_8">
		<path fill="#F4F4F4" d="M77.4,52.4h11.9V37.6H77.4c-9.8,0-17.8,8.7-17.8,19.4v7.5H47.7v14.8h11.9v35.9h14.8V79.4h14.8V64.5H74.4
			v-7.6C74.4,54.4,76,52.4,77.4,52.4z"/>
	</g>
</g>
</svg>
