<?xml version="1.0" encoding="utf-8"?>
<!-- Generator: Adobe Illustrator 18.0.0, SVG Export Plug-In . SVG Version: 6.00 Build 0)  -->
<!DOCTYPE svg PUBLIC "-//W3C//DTD SVG 1.1//EN" "http://www.w3.org/Graphics/SVG/1.1/DTD/svg11.dtd">
<svg version="1.1" id="Arrow_1_" xmlns="http://www.w3.org/2000/svg" xmlns:xlink="http://www.w3.org/1999/xlink" x="0px" y="0px"
	 width="500px" height="140.7px" viewBox="0 0 500 140.7" enable-background="new 0 0 500 140.7" xml:space="preserve">
  <metadata>
    <?xpacket begin="﻿" id="W5M0MpCehiHzreSzNTczkc9d"?>
    <x:xmpmeta xmlns:x="adobe:ns:meta/" x:xmptk="Adobe XMP Core 5.6-c011 79.156380, 2014/06/19-23:40:37        ">
     <rdf:RDF xmlns:rdf="http://www.w3.org/1999/02/22-rdf-syntax-ns#">
      <rdf:Description rdf:about=""
        xmlns:xmpMM="http://ns.adobe.com/xap/1.0/mm/"
        xmlns:stEvt="http://ns.adobe.com/xap/1.0/sType/ResourceEvent#"
        xmlns:xmp="http://ns.adobe.com/xap/1.0/"
        xmlns:xmpRights="http://ns.adobe.com/xap/1.0/rights/"
        xmlns:dc="http://purl.org/dc/elements/1.1/"
       xmpMM:DocumentID="xmp.did:65d060e5f70b2da6c6e29ad022138c72"
       xmpMM:OriginalDocumentID="xmp.did:65d060e5f70b2da6c6e29ad022138c72"
       xmpMM:InstanceID="xmp.iid:65d060e5f70b2da6c6e29ad022138c72"
       xmp:ModifyDate="2015-04-15T17:18:53+02:00"
       xmp:MetadataDate="2015-04-15T17:18:53+02:00"
       xmpRights:Marked="True"
       xmpRights:WebStatement="http://www.adobe.com/legal/general-terms.html">
       <xmpMM:History>
        <rdf:Seq>
         <rdf:li
          stEvt:action="saved"
          stEvt:instanceID="xmp.iid:65d060e5f70b2da6c6e29ad022138c72"
          stEvt:when="2015-04-15T17:18:53+02:00"/>
        </rdf:Seq>
       </xmpMM:History>
       <xmpRights:UsageTerms>
        <rdf:Alt>
         <rdf:li xml:lang="x-default">This work is licensed under the Adobe General Terms of Use http://www.adobe.com/legal/general-terms.html.</rdf:li>
        </rdf:Alt>
       </xmpRights:UsageTerms>
       <dc:publisher>
        <rdf:Bag>
         <rdf:li>Adobe Systems Incorporated</rdf:li>
        </rdf:Bag>
       </dc:publisher>
      </rdf:Description>
     </rdf:RDF>
    </x:xmpmeta>
    <?xpacket end="r"?>
  </metadata>
<g>
	<g id="Base_4_">
		<path fill="#AC301C" d="M9.4,0C4.2,0,0,4.2,0,9.4v122c0,5.2,4.2,9.4,9.4,9.4h131.4V0H9.4z"/>
	</g>
	<g id="Base_2_5_">
		<path fill="#D0422B" d="M490.7,0H138.2v140.7h352.5c5.1,0,9.3-4.2,9.3-9.4V9.4C500,4.2,495.8,0,490.7,0z"/>
	</g>
	<g id="Shape_9_copy_10">
		<path fill="#AB1800" d="M404.9,74.9l-1.5-11.4l-32.3,33.2c0,0-2.9,1-6,0c-2.9-1-6-4-6-4l16.1-13.9l-13.6-7l16.3-13.6L359.3,55
			l-2.2-3.8l-19.7,16l-4.8-16.2l-7.3,8.5l-15.7-7.1l-11.9,9.4l-6-8.8l-7.9,6l-2-5.9L270,64.4l-4-11.3l-9.9,6l-2-5.4l-9.9,9.1
			L227.6,53c0,0-47,51.9-80,87.7h219.6l51.1-62.3l-1.5-3.5C416.8,74.9,404.9,74.9,404.9,74.9z"/>
	</g>
	<g id="GOOGLE__x2B_">
		<path fill="#E2F8FF" d="M235,50.7c-7.6,0-11.5,4.5-11.5,12.3v25.4c0,7.8,3.9,12.3,11.5,12.3c7.6,0,11.5-4.5,11.5-12.3V72.9h-10.8
			v7h3.5v9c0,3.5-1.5,4.8-4,4.8c-2.5,0-4-1.3-4-4.8V62.5c0-3.5,1.5-4.8,4-4.8c2.5,0,4,1.3,4,4.8v5.2h7.3v-4.8
			C246.5,55.1,242.6,50.7,235,50.7z M262.4,50.7c-7.6,0-11.7,4.5-11.7,12.3v25.4c0,7.8,4.1,12.3,11.7,12.3c7.6,0,11.7-4.5,11.7-12.3
			V62.9C274.1,55.1,270,50.7,262.4,50.7z M266.4,88.9c0,3.5-1.5,4.8-4,4.8c-2.5,0-4-1.3-4-4.8V62.5c0-3.5,1.5-4.8,4-4.8
			c2.5,0,4,1.3,4,4.8V88.9z M289.5,50.7c-7.6,0-11.7,4.5-11.7,12.3v25.4c0,7.8,4.1,12.3,11.7,12.3s11.7-4.5,11.7-12.3V62.9
			C301.2,55.1,297.1,50.7,289.5,50.7z M293.5,88.9c0,3.5-1.5,4.8-4,4.8s-4-1.3-4-4.8V62.5c0-3.5,1.5-4.8,4-4.8s4,1.3,4,4.8V88.9z
			 M316.4,50.7c-7.6,0-11.5,4.5-11.5,12.3v25.4c0,7.8,3.9,12.3,11.5,12.3c7.6,0,11.5-4.5,11.5-12.3V72.9h-10.8v7h3.5v9
			c0,3.5-1.5,4.8-4,4.8s-4-1.3-4-4.8V62.5c0-3.5,1.5-4.8,4-4.8s4,1.3,4,4.8v5.2h7.3v-4.8C327.9,55.1,324,50.7,316.4,50.7z
			 M340.4,51.2l-7.7-0.1v49h20.4v-7h-12.7V51.2L340.4,51.2z M357.1,100.1h21v-7h-13.3V78.8h10.6v-7h-10.6V58.2h13.3v-7h-21V100.1z
			 M408.9,72.9v-9.4h-5.5v9.4h-9.4v5.4h9.4V88h5.5v-9.6h9.4v-5.4H408.9z"/>
	</g>
	<g id="Shape_9_5_">
		<path fill="#811200" d="M40.3,51.8l-1.1-8.2c0,0-26.7,26.2-39.2,38.4v49.3c0,5.2,4.2,9.4,9.4,9.4h35.1
			c16.7-16.7,29.6-30.1,29.6-30.1l3.1-9.4L123.4,57L107,53.1l-3.2-16.2L68.3,67.2l-6.8,5.3L72.4,60l-7.7-16.4c0,0-11.9-9.9-18.1-3.1
			C43.8,43.5,40.3,51.8,40.3,51.8z"/>
	</g>
	<g id="g">
		<path fill="#F4F4F4" d="M82.9,35.9H60.1c-3,0-6.3,0.3-9.7,1c-3.5,0.8-6.8,2.4-10.1,5c-4.7,4.3-7.1,9.1-7.1,14.4
			c0,4.4,1.7,8.2,5,11.5c3.2,3.5,7.8,5.4,13.9,5.4c1.1,0,2.4-0.1,3.7-0.2c-0.2,0.6-0.4,1.2-0.7,1.9c-0.3,0.6-0.4,1.4-0.4,2.4
			c0,1.6,0.4,3,1.1,4.1c0.6,1.2,1.4,2.3,2.2,3.3c-2.7,0.1-6,0.4-10,0.9c-4.1,0.7-8,2-11.6,4c-3.3,1.9-5.6,4-6.8,6.5
			c-1.3,2.4-1.9,4.7-1.9,6.7c0,4.1,2,7.6,6,10.5c3.9,3.1,9.9,4.8,17.9,4.8c9.5-0.1,16.8-2.3,21.9-6.5c4.9-4,7.3-8.7,7.3-13.9
			c-0.1-3.7-1-6.7-2.6-9c-1.8-2.2-3.9-4.3-6.3-6.2l-3.8-3c-0.6-0.5-1.1-1.1-1.7-1.8c-0.7-0.7-1-1.7-1-2.8c0-1.2,0.3-2.2,1-3.1
			c0.6-0.8,1.2-1.6,1.9-2.3c1.2-1,2.3-2,3.3-2.9c0.9-0.9,1.8-2,2.7-3.1c1.7-2.3,2.6-5.4,2.7-9.3c0-2.1-0.3-4-0.7-5.5
			c-0.6-1.6-1.3-3-2.1-4.1c-0.8-1.2-1.7-2.3-2.5-3.1c-0.9-0.8-1.7-1.4-2.4-1.8h7L82.9,35.9z M70.4,94.8c1.9,2,2.8,4.4,2.8,7.2
			c0,3.4-1.4,6.1-4.1,8.3c-2.8,2.2-6.9,3.3-12.3,3.4c-6-0.1-10.7-1.3-14.1-3.8c-3.6-2.5-5.4-5.6-5.4-9.4c0-1.9,0.4-3.6,1.2-5
			c0.7-1.3,1.6-2.4,2.7-3.3c1.1-0.8,2.2-1.5,3.2-1.9c1.1-0.4,1.9-0.7,2.4-0.9c2.5-0.7,4.9-1.2,7.2-1.5c2.4-0.2,3.9-0.3,4.5-0.2
			c1,0,1.8,0,2.6,0.1C65.3,90.5,68.4,92.9,70.4,94.8z M66.7,63c-0.3,1.4-0.9,2.9-1.8,4.2c-2,1.9-4.5,3-7.5,3.1
			c-2.4,0-4.5-0.7-6.3-2.1c-1.9-1.4-3.4-3-4.5-5c-2.4-4.2-3.6-8.3-3.6-12.2c-0.1-3,0.8-5.6,2.5-8c2-2.3,4.6-3.5,7.7-3.5
			c2.3,0.1,4.4,0.7,6.2,2c1.8,1.3,3.2,3,4.3,5.1c2.3,4.3,3.4,8.6,3.4,12.9C67,60.3,66.9,61.6,66.7,63z M108.5,52.2V36.9h-4.7v15.3
			H88.7V57h15.1v15.6h4.7V57h14.9v-4.8H108.5z"/>
	</g>
</g>
</svg>
